# xmcd
#
# Track frame offsets:
#	150
#	15569
#	31441
#	46254
#	62433
#	78295
#	93550
#	108954
#	126282
#	143251
#	160161
#	175195
#	192458
#	211325
#	227230
#	243986
#	258330
#	274571
#
# Disc length: 3889 seconds
#
# Revision: 2
# Processed by: cddbd v1.5.2PL0 Copyright (c) Steve Scherf et al.
# Submitted via: EasyCDDAExtractor 15.3.0.1
#
DISCID=e80f2f12
DTITLE=Britney Spears - The Singles Collection (Deluxe Edition)
DYEAR=2009
DGENRE=Pop
TTITLE0=3
TTITLE1=Baby One More Time
TTITLE2=(You Drive Me) Crazy (The Stop Remix!)
TTITLE3=Born To Make You Happy
TTITLE4=Oops!...I Did It Again
TTITLE5=Stronger
TTITLE6=I'm A Slave 4 U
TTITLE7=I'm Not A Girl, Not Yet A Woman
TTITLE8=Boys (The Co-Ed Remix) (Featuring Pharrell Williams)
TTITLE9=Me Against The Music (Featuring Madonna)
TTITLE10=Toxic
TTITLE11=Everytime
TTITLE12=Gimme More
TTITLE13=Piece Of Me
TTITLE14=Womanizer
TTITLE15=Circus
TTITLE16=If U Seek Amy
TTITLE17=Radar
EXTD=
EXTT0=
EXTT1=
EXTT2=
EXTT3=
EXTT4=
EXTT5=
EXTT6=
EXTT7=
EXTT8=
EXTT9=
EXTT10=
EXTT11=
EXTT12=
EXTT13=
EXTT14=
EXTT15=
EXTT16=
EXTT17=
PLAYORDER=
